<mxfile host="app.diagrams.net" agent="Mozilla/5.0 (Macintosh; Intel Mac OS X 10_15_7) AppleWebKit/537.36 (KHTML, like Gecko) Chrome/136.0.0.0 Safari/537.36" version="27.0.8">
  <diagram name="PÃ¡gina-1" id="AvRCU81oJWuWzURkTMaW">
    <mxGraphModel dx="1234" dy="732" grid="1" gridSize="10" guides="1" tooltips="1" connect="1" arrows="1" fold="1" page="1" pageScale="1" pageWidth="2339" pageHeight="3300" math="0" shadow="0">
      <root>
        <mxCell id="0" />
        <mxCell id="1" parent="0" />
        <mxCell id="JDUtq6p4CPVXXklM9wz6-2" value="AWS Account" style="points=[[0,0],[0.25,0],[0.5,0],[0.75,0],[1,0],[1,0.25],[1,0.5],[1,0.75],[1,1],[0.75,1],[0.5,1],[0.25,1],[0,1],[0,0.75],[0,0.5],[0,0.25]];outlineConnect=0;gradientColor=none;html=1;whiteSpace=wrap;fontSize=12;fontStyle=0;container=1;pointerEvents=0;collapsible=0;recursiveResize=0;shape=mxgraph.aws4.group;grIcon=mxgraph.aws4.group_account;strokeColor=#CD2264;fillColor=none;verticalAlign=top;align=left;spacingLeft=30;fontColor=#CD2264;dashed=0;" vertex="1" parent="1">
          <mxGeometry x="720" y="100" width="1080" height="500" as="geometry" />
        </mxCell>
        <mxCell id="JDUtq6p4CPVXXklM9wz6-21" style="edgeStyle=orthogonalEdgeStyle;rounded=0;orthogonalLoop=1;jettySize=auto;html=1;flowAnimation=1;" edge="1" parent="JDUtq6p4CPVXXklM9wz6-2" target="JDUtq6p4CPVXXklM9wz6-20">
          <mxGeometry relative="1" as="geometry">
            <mxPoint x="240" y="318.5" as="sourcePoint" />
          </mxGeometry>
        </mxCell>
        <mxCell id="JDUtq6p4CPVXXklM9wz6-15" value="&lt;div style=&quot;line-height: 18px; white-space-collapse: preserve;&quot;&gt;&lt;font face=&quot;Helvetica&quot; style=&quot;line-height: 120%; color: light-dark(rgb(227, 148, 220), rgb(255, 255, 255));&quot;&gt;PrescriFarmaEventsTopic&lt;/font&gt;&lt;/div&gt;" style="sketch=0;outlineConnect=0;fontColor=#232F3E;gradientColor=none;fillColor=#8C4FFF;strokeColor=none;dashed=0;verticalLabelPosition=bottom;verticalAlign=top;align=center;html=1;fontSize=12;fontStyle=0;aspect=fixed;pointerEvents=1;shape=mxgraph.aws4.msk_amazon_msk_connect;" vertex="1" parent="JDUtq6p4CPVXXklM9wz6-2">
          <mxGeometry x="60" y="277.5" width="78" height="77" as="geometry" />
        </mxCell>
        <mxCell id="JDUtq6p4CPVXXklM9wz6-20" value="prescrifarma" style="sketch=0;outlineConnect=0;fontColor=#232F3E;gradientColor=none;fillColor=#ED7100;strokeColor=none;dashed=0;verticalLabelPosition=bottom;verticalAlign=top;align=center;html=1;fontSize=12;fontStyle=0;aspect=fixed;pointerEvents=1;shape=mxgraph.aws4.lambda_function;" vertex="1" parent="JDUtq6p4CPVXXklM9wz6-2">
          <mxGeometry x="332" y="284.5" width="68" height="68" as="geometry" />
        </mxCell>
        <mxCell id="JDUtq6p4CPVXXklM9wz6-25" style="edgeStyle=orthogonalEdgeStyle;rounded=0;orthogonalLoop=1;jettySize=auto;html=1;flowAnimation=1;" edge="1" parent="JDUtq6p4CPVXXklM9wz6-2" source="JDUtq6p4CPVXXklM9wz6-22" target="JDUtq6p4CPVXXklM9wz6-24">
          <mxGeometry relative="1" as="geometry" />
        </mxCell>
        <mxCell id="JDUtq6p4CPVXXklM9wz6-22" value="sqs / dlq" style="sketch=0;points=[[0,0,0],[0.25,0,0],[0.5,0,0],[0.75,0,0],[1,0,0],[0,1,0],[0.25,1,0],[0.5,1,0],[0.75,1,0],[1,1,0],[0,0.25,0],[0,0.5,0],[0,0.75,0],[1,0.25,0],[1,0.5,0],[1,0.75,0]];outlineConnect=0;fontColor=#232F3E;fillColor=#E7157B;strokeColor=#ffffff;dashed=0;verticalLabelPosition=bottom;verticalAlign=top;align=center;html=1;fontSize=12;fontStyle=0;aspect=fixed;shape=mxgraph.aws4.resourceIcon;resIcon=mxgraph.aws4.sqs;" vertex="1" parent="JDUtq6p4CPVXXklM9wz6-2">
          <mxGeometry x="462" y="291" width="55" height="55" as="geometry" />
        </mxCell>
        <mxCell id="JDUtq6p4CPVXXklM9wz6-23" style="edgeStyle=orthogonalEdgeStyle;rounded=0;orthogonalLoop=1;jettySize=auto;html=1;entryX=0;entryY=0.5;entryDx=0;entryDy=0;entryPerimeter=0;flowAnimation=1;" edge="1" parent="JDUtq6p4CPVXXklM9wz6-2" source="JDUtq6p4CPVXXklM9wz6-20" target="JDUtq6p4CPVXXklM9wz6-22">
          <mxGeometry relative="1" as="geometry" />
        </mxCell>
        <mxCell id="JDUtq6p4CPVXXklM9wz6-32" value="" style="edgeStyle=orthogonalEdgeStyle;rounded=0;orthogonalLoop=1;jettySize=auto;html=1;flowAnimation=1;" edge="1" parent="JDUtq6p4CPVXXklM9wz6-2">
          <mxGeometry relative="1" as="geometry">
            <mxPoint x="602" y="284.5" as="sourcePoint" />
            <mxPoint x="602" y="200" as="targetPoint" />
          </mxGeometry>
        </mxCell>
        <mxCell id="JDUtq6p4CPVXXklM9wz6-35" value="Request" style="edgeLabel;html=1;align=center;verticalAlign=middle;resizable=0;points=[];" vertex="1" connectable="0" parent="JDUtq6p4CPVXXklM9wz6-32">
          <mxGeometry x="0.0059" y="2" relative="1" as="geometry">
            <mxPoint x="-28" y="-12" as="offset" />
          </mxGeometry>
        </mxCell>
        <mxCell id="JDUtq6p4CPVXXklM9wz6-69" style="edgeStyle=orthogonalEdgeStyle;rounded=0;orthogonalLoop=1;jettySize=auto;html=1;entryX=0;entryY=0.5;entryDx=0;entryDy=0;flowAnimation=1;" edge="1" parent="JDUtq6p4CPVXXklM9wz6-2" source="JDUtq6p4CPVXXklM9wz6-24" target="JDUtq6p4CPVXXklM9wz6-67">
          <mxGeometry relative="1" as="geometry" />
        </mxCell>
        <mxCell id="JDUtq6p4CPVXXklM9wz6-24" value="realTimeFarma" style="sketch=0;outlineConnect=0;fontColor=#232F3E;gradientColor=none;fillColor=#ED7100;strokeColor=none;dashed=0;verticalLabelPosition=bottom;verticalAlign=top;align=center;html=1;fontSize=12;fontStyle=0;aspect=fixed;pointerEvents=1;shape=mxgraph.aws4.lambda_function;" vertex="1" parent="JDUtq6p4CPVXXklM9wz6-2">
          <mxGeometry x="582" y="284.5" width="68" height="68" as="geometry" />
        </mxCell>
        <mxCell id="JDUtq6p4CPVXXklM9wz6-34" style="edgeStyle=orthogonalEdgeStyle;rounded=0;orthogonalLoop=1;jettySize=auto;html=1;flowAnimation=1;" edge="1" parent="JDUtq6p4CPVXXklM9wz6-2">
          <mxGeometry relative="1" as="geometry">
            <mxPoint x="632" y="200" as="sourcePoint" />
            <mxPoint x="632" y="284.5" as="targetPoint" />
          </mxGeometry>
        </mxCell>
        <mxCell id="JDUtq6p4CPVXXklM9wz6-36" value="Response" style="edgeLabel;html=1;align=center;verticalAlign=middle;resizable=0;points=[];" vertex="1" connectable="0" parent="JDUtq6p4CPVXXklM9wz6-34">
          <mxGeometry x="0.1361" y="2" relative="1" as="geometry">
            <mxPoint x="28" y="-18" as="offset" />
          </mxGeometry>
        </mxCell>
        <mxCell id="JDUtq6p4CPVXXklM9wz6-31" value="" style="image;aspect=fixed;html=1;points=[];align=center;fontSize=12;image=img/lib/azure2/app_services/API_Management_Services.svg;" vertex="1" parent="JDUtq6p4CPVXXklM9wz6-2">
          <mxGeometry x="583.5" y="140" width="65" height="60" as="geometry" />
        </mxCell>
        <mxCell id="JDUtq6p4CPVXXklM9wz6-37" value="API XHIS" style="text;html=1;align=center;verticalAlign=middle;resizable=0;points=[];autosize=1;strokeColor=none;fillColor=none;" vertex="1" parent="JDUtq6p4CPVXXklM9wz6-2">
          <mxGeometry x="583.5" y="110" width="70" height="30" as="geometry" />
        </mxCell>
        <mxCell id="JDUtq6p4CPVXXklM9wz6-38" value="VPC" style="points=[[0,0],[0.25,0],[0.5,0],[0.75,0],[1,0],[1,0.25],[1,0.5],[1,0.75],[1,1],[0.75,1],[0.5,1],[0.25,1],[0,1],[0,0.75],[0,0.5],[0,0.25]];outlineConnect=0;gradientColor=none;html=1;whiteSpace=wrap;fontSize=12;fontStyle=0;container=1;pointerEvents=0;collapsible=0;recursiveResize=0;shape=mxgraph.aws4.group;grIcon=mxgraph.aws4.group_vpc2;strokeColor=#8C4FFF;fillColor=none;verticalAlign=top;align=left;spacingLeft=30;fontColor=#AAB7B8;dashed=0;" vertex="1" parent="JDUtq6p4CPVXXklM9wz6-2">
          <mxGeometry x="545.25" y="260" width="141.5" height="140" as="geometry" />
        </mxCell>
        <mxCell id="JDUtq6p4CPVXXklM9wz6-54" value="VPC" style="points=[[0,0],[0.25,0],[0.5,0],[0.75,0],[1,0],[1,0.25],[1,0.5],[1,0.75],[1,1],[0.75,1],[0.5,1],[0.25,1],[0,1],[0,0.75],[0,0.5],[0,0.25]];outlineConnect=0;gradientColor=none;html=1;whiteSpace=wrap;fontSize=12;fontStyle=0;container=1;pointerEvents=0;collapsible=0;recursiveResize=0;shape=mxgraph.aws4.group;grIcon=mxgraph.aws4.group_vpc2;strokeColor=#8C4FFF;fillColor=none;verticalAlign=top;align=left;spacingLeft=30;fontColor=#AAB7B8;dashed=0;" vertex="1" parent="JDUtq6p4CPVXXklM9wz6-2">
          <mxGeometry x="295.25" y="260" width="141.5" height="140" as="geometry" />
        </mxCell>
        <mxCell id="JDUtq6p4CPVXXklM9wz6-56" style="edgeStyle=orthogonalEdgeStyle;rounded=0;orthogonalLoop=1;jettySize=auto;html=1;flowAnimation=1;" edge="1" parent="JDUtq6p4CPVXXklM9wz6-2" source="JDUtq6p4CPVXXklM9wz6-55" target="JDUtq6p4CPVXXklM9wz6-15">
          <mxGeometry relative="1" as="geometry" />
        </mxCell>
        <mxCell id="JDUtq6p4CPVXXklM9wz6-55" value="" style="sketch=0;outlineConnect=0;fontColor=#232F3E;gradientColor=none;fillColor=#8C4FFF;strokeColor=none;dashed=0;verticalLabelPosition=bottom;verticalAlign=top;align=center;html=1;fontSize=12;fontStyle=0;aspect=fixed;pointerEvents=1;shape=mxgraph.aws4.peering;" vertex="1" parent="JDUtq6p4CPVXXklM9wz6-2">
          <mxGeometry x="190" y="291" width="50" height="50" as="geometry" />
        </mxCell>
        <mxCell id="JDUtq6p4CPVXXklM9wz6-62" value="" style="sketch=0;outlineConnect=0;fontColor=#232F3E;gradientColor=none;fillColor=#232F3D;strokeColor=none;dashed=0;verticalLabelPosition=bottom;verticalAlign=top;align=center;html=1;fontSize=12;fontStyle=0;aspect=fixed;pointerEvents=1;shape=mxgraph.aws4.json_script;" vertex="1" parent="JDUtq6p4CPVXXklM9wz6-2">
          <mxGeometry x="240" y="80" width="35.08" height="48" as="geometry" />
        </mxCell>
        <mxCell id="JDUtq6p4CPVXXklM9wz6-65" value="PRESCRI_FARMA_PK, ANA_UNID_PK, VIAS_PK, HOJA_DET_PK, REFERENCIA_ID, NOMBRE_COD, TIPO_FARMACO, CANTIDAD_PAU, CADAXHORA_PAU, FORMASFAR_PK, ALERG_PACIENTE, DISPENS_HOSP_SN, CANTIDAD_DOSIS, D_DURACION_TRAT, ORDEN_DISPENSACION" style="text;whiteSpace=wrap;html=1;fontSize=9;" vertex="1" parent="JDUtq6p4CPVXXklM9wz6-2">
          <mxGeometry x="295.25" y="80" width="130" height="169" as="geometry" />
        </mxCell>
        <mxCell id="JDUtq6p4CPVXXklM9wz6-67" value="" style="shape=image;verticalLabelPosition=bottom;labelBackgroundColor=default;verticalAlign=top;aspect=fixed;imageAspect=0;image=https://i.pcmag.com/imagery/reviews/042JMWlm1P2o86rIcHIUf82-11.fit_scale.size_400x225.v1569479266.jpg;" vertex="1" parent="JDUtq6p4CPVXXklM9wz6-2">
          <mxGeometry x="770" y="291" width="100" height="56.25" as="geometry" />
        </mxCell>
        <mxCell id="JDUtq6p4CPVXXklM9wz6-68" value="Contact" style="html=1;verticalLabelPosition=bottom;align=center;labelBackgroundColor=#ffffff;verticalAlign=top;strokeWidth=2;strokeColor=light-dark(#0080F0,#FF8000);shadow=0;dashed=0;shape=mxgraph.ios7.icons.user;" vertex="1" parent="JDUtq6p4CPVXXklM9wz6-2">
          <mxGeometry x="800" y="354.5" width="30" height="30" as="geometry" />
        </mxCell>
        <mxCell id="JDUtq6p4CPVXXklM9wz6-13" value="" style="shape=stencil(fZbdcgIhDIWfZm8zQAg/17Z9j85U606tdqz9e/tmZ0c0uJ47xP0I5JwEBl59bp8/1kNwn6fj4W39M76ctgM/DCGM++36OJ50NPDjwKvN4bh+PR6+9i/z74/n6ctp9H74nlb4nbmSKZeJCu5vngmZ6jzzNAO7cX8FVKEsBuBKrgKg9oAE8gkCbLeUhEoEQKSUDZDLeWYRKIl8MEDRmHwfyBrBG6Amyu4+kDxxMoB3jhwgYu7TVAsVkFcWCs4CTBEoF4RctKeOxHIf8IXYpikHikAIf+MNUW94AGSSaoAoFIE3AlOyeWU+p2E5S9yfQZcQILVuQOwZdJNoS9Ls3wA5u2XZTIHECqeJ9kDpSaauRiNVcAY1QhdBzeLBli5WazpkSsBLV25uRaqWRyFawTQzRRIQYirJzq5atkBqLfouwqUxLBepthWb10vrWZY6UOAeyKCCtDV625mm9gmUC4Wc3VLJMMIE1BsA2FW9JraVlQB7n3c9oMKhCLEvIM1zBPZ25/umNQ1tVEC2G+fFCC8g398O2hNQuQlVu752DBfA+q0ptnqO5JFmeuIuo9DY7KjY71UxdJV4EntifPWorW++R/dC4t7V3DlIB5cHx2bc7eb3yvX//QNFp+bHDT/+Aw==);lineShape=1;strokeColor=default;" vertex="1" parent="1">
          <mxGeometry x="632.8679608424759" y="473.8753124585194" width="4.672539772115215" height="4.665236216357243" as="geometry" />
        </mxCell>
        <mxCell id="JDUtq6p4CPVXXklM9wz6-14" value="" style="shape=stencil(fZbdcgIhDIWfZm8zQAg/17Z9j85U606tdqz9e/tmZ0c0uJ47xP0I5JwEBl59bp8/1kNwn6fj4W39M76ctgM/DCGM++36OJ50NPDjwKvN4bh+PR6+9i/z74/n6ctp9H74nlb4nbmSKZeJCu5vngmZ6jzzNAO7cX8FVKEsBuBKrgKg9oAE8gkCbLeUhEoEQKSUDZDLeWYRKIl8MEDRmHwfyBrBG6Amyu4+kDxxMoB3jhwgYu7TVAsVkFcWCs4CTBEoF4RctKeOxHIf8IXYpikHikAIf+MNUW94AGSSaoAoFIE3AlOyeWU+p2E5S9yfQZcQILVuQOwZdJNoS9Ls3wA5u2XZTIHECqeJ9kDpSaauRiNVcAY1QhdBzeLBli5WazpkSsBLV25uRaqWRyFawTQzRRIQYirJzq5atkBqLfouwqUxLBepthWb10vrWZY6UOAeyKCCtDV625mm9gmUC4Wc3VLJMMIE1BsA2FW9JraVlQB7n3c9oMKhCLEvIM1zBPZ25/umNQ1tVEC2G+fFCC8g398O2hNQuQlVu752DBfA+q0ptnqO5JFmeuIuo9DY7KjY71UxdJV4EntifPWorW++R/dC4t7V3DlIB5cHx2bc7eb3yvX//QNFp+bHDT/+Aw==);lineShape=1;strokeColor=default;" vertex="1" parent="1">
          <mxGeometry x="657.8679608424757" y="40.87531245851915" width="4.672539772115442" height="4.665236216357698" as="geometry" />
        </mxCell>
      </root>
    </mxGraphModel>
  </diagram>
</mxfile>
